<?xml version="1.0" encoding="UTF-8"?>
<svg id="Layer_1" data-name="Layer 1" xmlns="http://www.w3.org/2000/svg" viewBox="0 0 296.07 216">
  <defs>
    <style>
      .cls-1 {
        fill: #66c5b4;
      }

      .cls-1, .cls-2, .cls-3, .cls-4, .cls-5, .cls-6, .cls-7, .cls-8, .cls-9, .cls-10 {
        stroke-width: 0px;
      }

      .cls-2 {
        fill: #4a5b73;
      }

      .cls-3 {
        fill: #8b5652;
      }

      .cls-4 {
        fill: #ef4444;
      }

      .cls-5 {
        fill: #d8c095;
      }

      .cls-6 {
        fill: #f18c52;
      }

      .cls-7 {
        fill: #50bc82;
      }

      .cls-8 {
        fill: #bf7260;
      }

      .cls-9 {
        fill: #fff;
      }

      .cls-10 {
        fill: #015951;
      }
    </style>
  </defs>
  <rect class="cls-6" x="135.55" y="129.09" width="30.64" height="76.85" rx="6.13" ry="6.13"/>
  <circle class="cls-2" cx="141.77" cy="164.4" r="2.81"/>
  <polygon class="cls-2" points="54 39.75 45 39.75 45 49.81 18 60.85 18 39.75 8.1 39.75 18 22.61 19.58 19.87 31.05 0 42.53 19.87 45 24.15 54 39.75"/>
  <path class="cls-7" d="m180,44.05v32.45c0,7.43-6.07,13.5-13.5,13.5h-39c-.83,0-1.5.67-1.5,1.5v106.5h-27V46.42c0-.61.37-1.16.93-1.39l25.26-10.34,16.64-6.81c.37-.15.77-.15,1.14,0l36.1,14.78c.56.23.93.78.93,1.39Z"/>
  <path class="cls-2" d="m99,45.41v140.59c0,6.6-5.4,12-12,12h-42c2.08,0,3.99-.71,5.52-1.91.3-.22.58-.47.84-.73,1.63-1.64,2.64-3.88,2.64-6.36,0-4.95-4.05-9-9-9h-9c2.48,0,4.72-1.01,6.36-2.64,1.63-1.64,2.64-3.88,2.64-6.36,0-4.95-4.05-9-9-9,0-2.48-1.01-4.72-2.64-6.36-1.64-1.63-3.88-2.64-6.36-2.64s-4.72,1.01-6.36,2.64c-1.63,1.64-2.64,3.88-2.64,6.36v-83.45l27-11.05v86.13c0,9.56,5.4,17.37,12,17.37h3c6.6,0,12-7.81,12-17.37V56.46l27-11.05Z"/>
  <path class="cls-1" d="m261,154.65v31.25c0,6.66-5.4,12.1-12,12.1h-57c-6.6,0-12-5.44-12-12.1V43.04l48.03,19.65c-.09.59-.14,1.19-.14,1.8v51.83c0,6.6,5.4,12,12,12h17.33c-.66,7.19-.98,13.01-.98,16.1,0,3.99,1.81,7.6,4.76,10.23Z"/>
  <path class="cls-7" d="m45,171c0,2.48-1.01,4.72-2.64,6.36-1.64,1.63-3.88,2.64-6.36,2.64h-18c-4.95,0-9-4.05-9-9,0-2.48,1.01-4.72,2.64-6.36,1.64-1.63,3.88-2.64,6.36-2.64,0-2.48,1.01-4.72,2.64-6.36,1.64-1.63,3.88-2.64,6.36-2.64s4.72,1.01,6.36,2.64c1.63,1.64,2.64,3.88,2.64,6.36,4.95,0,9,4.05,9,9Z"/>
  <path class="cls-3" d="m54,189c0,2.48-1.01,4.72-2.64,6.36-.26.26-.54.51-.84.73-1.53,1.2-3.44,1.91-5.52,1.91H9c-4.95,0-9-4.05-9-9,0-2.48,1.01-4.72,2.64-6.36,1.64-1.63,3.88-2.64,6.36-2.64h36c4.95,0,9,4.05,9,9Z"/>
  <polygon class="cls-6" points="172.94 15.16 164.03 18.8 143.99 27 142.4 27.65 125.19 34.69 99 45.41 72 56.46 45 67.5 18 78.55 6.2 83.38 0 68.22 18 60.85 45 49.81 99 27.71 100.73 27 120.77 18.8 142.4 9.96 166.74 0 172.94 15.16"/>
  <path class="cls-4" d="m272.76,63.29c-.39.23-.76.5-1.1.81-2.39,2.19-4.52,7.24-6.36,13.84l-4.3-1.76-32.97-13.49-48.03-19.65-37.6-15.39,1.59-.65,20.04-8.2,15.97,6.54,5.46,2.24,1.42.58,59.48,24.33,14.64,5.99,11.76,4.81Z"/>
  <path class="cls-3" d="m284.8,68.22l-.56,1.38c-.32-.72-.64-1.4-.97-2.01l1.53.63Z"/>
  <rect class="cls-5" y="198" width="288" height="18"/>
  <rect class="cls-9" x="112.32" y="48.74" width="53.79" height="23.94" rx="11.97" ry="11.97"/>
  <path class="cls-10" d="m296.07,144.31v.11c0,8.03-7.37,14.54-16.45,14.54h-1.48v-7.98l10.26-20.1-3.46-1.77-6.85,13.42v-41.67h-3.88v38.28l-6.43-18.57-3.67,1.27,9.73,28.13.03,8.99h-1.19c-4.57,0-8.71-1.65-11.68-4.31-2.95-2.63-4.76-6.24-4.76-10.23,0-3.09.32-8.91.98-16.1.67-7.51,1.68-16.5,3.02-25.38,1.36-9.01,3.05-17.9,5.06-25,1.84-6.6,3.97-11.65,6.36-13.84.34-.31.71-.58,1.1-.81,1.04-.6,2.25-.91,3.45-.91,1.67,0,3.33.58,4.58,1.74h.01c.86.81,1.68,1.98,2.47,3.47.33.61.65,1.29.97,2.01,7.63,17.41,11.83,63.71,11.83,74.71Z"/>
  <polygon class="cls-8" points="288.4 130.88 278.14 150.98 278.14 158.96 278.12 198 274.02 198 273.87 158.96 273.84 149.97 264.11 121.84 267.78 120.57 274.21 139.14 274.21 100.86 278.09 100.86 278.09 142.53 284.94 129.11 288.4 130.88"/>
  <rect class="cls-9" x="182.46" y="76.52" width="43.89" height="23.94" rx="11.97" ry="11.97" transform="translate(115.91 292.89) rotate(-90)"/>
  <rect class="cls-9" x="194.26" y="146.3" width="53.1" height="37.92" rx="18.96" ry="18.96" transform="translate(441.61 330.52) rotate(-180)"/>
</svg>